<?xml version="1.0" standalone="no"?>
<!DOCTYPE svg PUBLIC "-//W3C//DTD SVG 20010904//EN"
 "http://www.w3.org/TR/2001/REC-SVG-20010904/DTD/svg10.dtd">
<svg version="1.0" xmlns="http://www.w3.org/2000/svg"
 width="1030.000000pt" height="1030.000000pt" viewBox="0 0 1030.000000 1030.000000"
 preserveAspectRatio="xMidYMid meet">
<metadata>
Created by potrace 1.14, written by Peter Selinger 2001-2017
</metadata>
<g transform="translate(0.000000,1030.000000) scale(0.100000,-0.100000)"
fill="#000000" stroke="none">
<path d="M4522 9708 c-7 -7 -12 -18 -12 -24 0 -10 -223 -154 -285 -184 -5 -3
-29 -18 -53 -33 -24 -15 -58 -36 -75 -46 -18 -10 -149 -89 -292 -176 -143 -87
-273 -165 -290 -174 -16 -10 -48 -28 -70 -42 -190 -120 -502 -303 -510 -300
-41 13 -64 2 -69 -35 -3 -17 -498 -324 -522 -324 -7 0 -14 6 -16 12 -3 8 -22
12 -48 12 -54 -2 -83 -31 -78 -81 2 -32 0 -34 -160 -132 -89 -55 -165 -101
-169 -103 -5 -1 -52 -29 -105 -61 -91 -56 -98 -58 -125 -45 -15 7 -35 13 -43
12 -8 -1 -21 -2 -27 -3 -20 -2 -46 -49 -45 -81 1 -29 0 -30 -110 -95 -10 -5
-73 -44 -140 -85 -68 -41 -132 -80 -143 -86 -11 -6 -73 -43 -137 -82 -65 -40
-122 -72 -128 -72 -6 0 -8 -10 -5 -22 9 -41 17 -82 26 -138 5 -30 11 -66 14
-80 3 -14 12 -65 21 -115 8 -49 17 -101 20 -115 3 -14 7 -36 9 -50 2 -14 15
-86 29 -160 l24 -135 -30 -25 c-24 -20 -30 -33 -30 -63 0 -21 6 -44 13 -53 17
-20 65 -45 73 -37 3 4 6 4 6 2 0 -6 35 -203 61 -339 11 -63 23 -128 25 -145 2
-16 9 -55 15 -85 6 -30 12 -64 14 -75 3 -21 12 -73 20 -115 3 -14 7 -38 10
-55 3 -16 7 -41 10 -55 3 -14 8 -45 11 -70 3 -25 8 -48 10 -51 2 -4 6 -24 9
-45 5 -33 20 -117 50 -279 3 -16 8 -46 11 -65 3 -19 7 -40 9 -47 2 -6 -7 -18
-19 -27 -58 -37 -46 -125 19 -146 26 -8 34 -18 38 -43 3 -18 15 -84 26 -147
11 -63 23 -133 26 -155 4 -22 10 -56 15 -75 5 -19 12 -55 15 -80 4 -25 8 -52
10 -60 1 -8 -8 -25 -21 -37 -42 -39 -23 -105 37 -126 11 -3 19 -24 24 -59 5
-29 9 -55 10 -58 1 -3 5 -25 9 -50 4 -25 16 -90 26 -145 11 -55 21 -113 24
-130 3 -16 9 -55 14 -85 5 -30 7 -60 5 -67 -3 -7 -1 -19 5 -26 5 -6 13 -32 17
-57 4 -25 9 -54 11 -65 3 -11 7 -35 10 -54 3 -18 8 -43 10 -55 2 -11 16 -87
31 -168 l26 -148 -26 -24 c-69 -64 14 -164 91 -110 21 15 29 12 155 -54 72
-38 191 -100 262 -137 186 -97 476 -247 720 -375 61 -32 184 -96 275 -143 91
-47 221 -115 290 -151 69 -36 167 -87 217 -113 60 -31 93 -54 93 -64 0 -26 26
-41 57 -35 24 6 71 -15 264 -116 129 -68 278 -145 332 -173 53 -27 96 -54 96
-60 -3 -30 4 -46 26 -61 22 -14 27 -14 56 0 19 10 36 12 43 7 6 -5 110 -59
231 -121 121 -62 225 -116 230 -120 6 -4 56 -31 111 -59 56 -28 102 -57 101
-64 -1 -37 6 -49 35 -61 27 -12 35 -12 54 1 23 15 59 -2 494 -231 64 -34 156
-81 205 -106 50 -25 95 -51 101 -59 9 -12 12 -12 17 1 3 8 72 105 154 214 81
110 159 215 172 234 13 19 26 37 30 40 4 3 30 37 58 75 35 48 59 71 74 72 27
2 41 21 34 49 -4 18 50 101 147 224 10 14 71 95 134 180 64 85 121 155 127
156 47 2 74 34 56 66 -11 19 341 493 368 494 44 3 52 5 67 20 18 17 21 65 6
80 -7 7 1 25 24 55 18 24 94 125 167 224 110 147 138 179 156 177 28 -4 54 33
44 62 -7 17 19 58 146 229 136 182 158 207 182 207 47 0 66 34 49 86 -3 11 20
43 210 298 65 87 106 151 108 170 3 17 9 60 15 96 5 36 12 81 14 100 3 19 9
58 15 85 5 28 12 68 14 90 10 81 29 175 37 175 4 0 15 7 23 16 17 17 22 64 7
64 -20 0 -21 41 -6 137 9 54 18 109 20 123 2 14 11 66 19 115 8 50 18 113 22
140 3 28 10 51 15 53 4 2 20 12 34 24 30 24 29 56 -3 91 -12 13 -20 25 -18 28
2 2 6 22 9 44 3 22 11 72 17 110 6 39 13 84 16 100 2 17 6 41 9 55 2 14 7 43
10 65 3 22 7 51 10 65 2 14 7 43 10 65 8 56 15 76 25 70 5 -3 17 6 28 20 23
29 19 63 -10 83 -10 7 -16 16 -14 20 2 4 7 31 11 61 4 30 9 63 11 75 4 22 19
115 29 181 3 22 12 83 21 135 8 52 18 109 20 125 3 17 9 31 14 33 5 2 20 12
34 23 34 27 35 72 2 102 l-23 22 27 166 c16 92 31 189 34 215 4 27 9 56 11 64
2 8 6 36 10 62 11 89 23 142 34 146 23 8 50 38 57 64 5 21 0 33 -21 54 -27 27
-27 29 -9 129 2 11 13 81 24 155 12 74 23 146 25 160 3 14 8 45 11 70 3 25 8
54 11 65 2 11 5 31 7 45 11 96 19 120 37 120 23 0 59 54 52 80 -13 50 -77 68
-116 33 l-22 -20 -120 34 c-66 18 -129 35 -140 38 -11 2 -69 18 -130 35 -60
17 -144 40 -185 51 -124 33 -214 59 -235 69 -11 4 -27 8 -35 8 -15 0 -535 141
-597 162 -18 6 -41 13 -52 15 -11 2 -47 11 -80 20 -47 14 -61 22 -63 39 -2 11
-16 27 -31 34 -24 12 -31 11 -52 -2 -33 -22 -34 -21 -197 23 -420 116 -506
139 -535 146 -18 3 -35 11 -38 16 -4 5 -15 9 -26 9 -11 0 -111 25 -222 56
-111 30 -233 64 -272 74 -38 10 -128 35 -200 55 -71 20 -137 38 -145 40 -8 2
-82 22 -165 45 -82 23 -172 48 -200 55 -27 8 -108 30 -180 50 -71 20 -164 45
-205 56 -502 135 -630 172 -630 185 0 11 -21 24 -39 24 -4 0 -12 -5 -19 -12z
m278 -103 c113 -31 210 -58 215 -59 51 -11 225 -62 225 -66 0 -3 -35 -26 -78
-52 l-77 -48 -50 16 c-28 8 -57 17 -65 19 -8 2 -91 24 -185 50 -93 27 -182 50
-197 53 -24 4 -28 9 -29 38 -1 19 -1 45 -2 58 -1 25 20 59 32 52 3 -2 98 -30
211 -61z m-259 -6 c1 -27 2 -56 2 -64 0 -8 -1 -19 -2 -24 0 -5 -36 -30 -78
-55 -43 -26 -109 -66 -147 -90 l-69 -43 -76 24 c-42 12 -84 23 -94 23 -29 0
-14 13 95 78 57 34 157 95 223 135 66 41 126 72 133 69 7 -2 13 -24 13 -53z
m1064 -214 c50 -11 377 -104 381 -108 5 -4 -76 -63 -301 -219 l-80 -56 -60 18
c-224 65 -205 62 -232 40 -14 -11 -28 -20 -32 -20 -3 0 -6 98 -6 218 l0 218
155 -43 c85 -24 164 -45 175 -48z m-345 -134 l0 -219 -72 22 -73 22 -1 149 -1
150 71 47 c39 26 72 47 73 48 1 0 2 -99 3 -219z m-1225 -7 c3 -60 8 -151 10
-202 5 -88 4 -94 -15 -99 -11 -3 -20 -9 -20 -13 0 -21 -41 -17 -138 10 -59 17
-118 35 -132 40 -14 5 -65 21 -115 36 -49 15 -94 29 -98 31 -5 3 6 14 25 26
185 113 473 285 475 283 1 -1 5 -51 8 -112z m106 94 c78 -21 93 -31 65 -41
-14 -6 -15 -92 -1 -276 5 -70 10 -66 -65 -46 -33 9 -42 9 -61 1 -15 -6 -17 0
-17 46 -1 29 -4 117 -8 196 -3 78 -3 142 1 142 4 0 43 -10 86 -22z m1994 -99
c39 -10 102 -28 140 -38 274 -76 377 -104 425 -117 30 -8 61 -17 68 -19 14 -5
-23 -37 -135 -119 l-53 -38 -259 74 c-232 66 -261 72 -280 59 -21 -14 -21 -13
-17 100 2 63 4 118 5 123 1 4 9 5 19 1 9 -4 49 -15 87 -26z m-129 -96 c-3 -65
-5 -121 -5 -125 -1 -4 -40 -35 -88 -69 -49 -35 -89 -66 -91 -70 -3 -8 -133 25
-168 42 -15 8 -21 20 -21 45 0 34 6 39 185 165 102 71 187 129 189 129 2 0 1
-53 -1 -117z m-822 -106 c27 -7 51 -17 53 -22 1 -6 -15 -20 -38 -33 -22 -13
-43 -32 -47 -42 -14 -37 -35 -5 -36 54 -2 62 -3 61 68 43z m1729 -12 c102 -27
274 -75 382 -106 81 -23 211 -58 239 -64 38 -9 44 -41 13 -68 -12 -10 -33 -28
-47 -40 -14 -12 -45 -38 -70 -57 -25 -19 -47 -37 -50 -41 -7 -9 -112 -93 -129
-104 -11 -6 -13 -4 -8 7 4 13 -29 26 -180 69 -160 45 -187 51 -197 38 -6 -8
-28 -28 -49 -44 l-38 -28 5 24 c3 13 8 78 11 144 4 66 8 145 9 175 2 30 4 70
5 88 1 17 3 32 6 32 3 0 47 -11 98 -25z m-3203 -53 c91 -28 185 -55 208 -62
l44 -11 -46 -29 -46 -29 6 -63 c2 -35 6 -88 8 -119 l3 -56 -43 -27 -44 -28
-116 37 c-64 20 -125 35 -135 32 -16 -4 -19 1 -20 26 -1 18 -2 43 -4 57 -1 14
-6 84 -10 155 -4 72 -9 139 -11 149 -5 27 5 38 24 27 10 -5 92 -32 182 -59z
m3075 -84 c-4 -84 -9 -160 -10 -168 -2 -8 -4 -39 -4 -68 -1 -49 -3 -53 -21
-47 -11 3 -30 8 -42 10 -13 3 -48 13 -78 23 l-55 19 4 113 c2 68 8 118 15 124
6 6 34 28 61 48 28 21 55 41 60 45 46 37 68 53 72 53 3 0 1 -69 -2 -152z
m-3296 75 c1 -37 4 -69 5 -72 2 -3 7 -67 11 -141 3 -74 8 -138 11 -141 2 -4
-18 -21 -45 -39 l-50 -31 -208 66 c-244 78 -263 85 -263 96 0 6 165 110 311
196 21 12 77 47 126 77 48 30 91 55 94 56 3 0 7 -30 8 -67z m2278 -93 c20 0
16 -18 -7 -30 -17 -9 -20 -21 -20 -80 0 -39 -4 -70 -8 -70 -5 0 -29 7 -55 16
l-46 15 1 87 c1 48 2 90 4 93 2 4 29 -2 60 -12 32 -11 63 -19 71 -19z m2017
-85 c47 -14 103 -29 123 -34 21 -5 106 -28 188 -51 83 -23 175 -48 205 -56 30
-8 80 -22 110 -31 l54 -16 -56 -51 c-30 -28 -93 -85 -139 -126 -45 -41 -99
-90 -118 -108 -36 -33 -60 -35 -88 -6 -7 7 -27 15 -45 19 -18 4 -60 15 -93 26
-33 10 -93 27 -133 38 l-73 20 -33 -30 c-33 -29 -60 -36 -83 -21 -12 7 -12 52
1 157 3 22 8 83 11 135 7 115 11 127 36 135 10 4 19 11 19 16 0 14 20 11 114
-16z m-179 -57 c-3 -35 -8 -81 -10 -103 -2 -22 -7 -80 -10 -130 -10 -116 -10
-118 -21 -122 -5 -1 -76 17 -158 41 -138 39 -151 45 -159 70 -5 15 -7 28 -6
30 12 8 260 212 304 250 17 14 38 26 48 26 16 0 17 -7 12 -62z m-4697 -131 l2
-52 -186 -115 c-286 -176 -267 -167 -317 -150 -35 13 -42 19 -44 45 -2 29 6
35 249 180 137 82 252 153 254 157 3 4 13 3 22 -3 12 -7 18 -27 20 -62z m153
39 c57 -18 157 -50 222 -71 l117 -38 -35 -24 c-26 -18 -35 -31 -35 -52 l0 -27
-162 53 c-90 30 -167 55 -173 57 -5 2 -22 6 -37 11 -16 4 -28 12 -29 19 0 6
-2 27 -4 46 -2 33 9 60 24 60 4 0 54 -15 112 -34z m3616 -30 c39 -13 74 -22
77 -18 3 3 6 0 6 -5 0 -6 -18 -25 -39 -42 -36 -29 -39 -35 -40 -84 -3 -97 -6
-122 -16 -121 -6 0 -31 6 -58 13 l-47 13 4 92 c2 50 5 110 5 134 1 51 8 52
108 18z m2073 -86 c118 -33 292 -81 387 -106 159 -43 173 -49 181 -74 9 -24 2
-34 -99 -138 -60 -62 -111 -112 -113 -112 -2 0 -3 19 -2 41 l1 42 -280 78
-280 79 -48 -48 -48 -47 5 55 c3 30 8 71 10 90 3 19 8 58 11 85 15 125 15 127
39 121 11 -3 118 -33 236 -66z m-4860 15 c0 -33 4 -45 15 -45 24 0 17 -14 -15
-33 -30 -18 -30 -18 -31 5 -1 13 0 33 0 44 1 13 -5 24 -16 28 -16 7 -16 9 7
26 36 28 40 25 40 -25z m4576 3 c-3 -24 -12 -104 -21 -178 l-16 -135 -44 -43
c-38 -36 -47 -41 -67 -33 -13 6 -58 20 -100 32 -75 22 -78 24 -84 57 -4 20 -2
37 4 41 11 7 163 145 261 238 36 34 67 63 69 63 1 0 0 -19 -2 -42z m-4086 -38
c0 -5 -7 -10 -16 -10 -8 0 -12 5 -9 10 3 6 10 10 16 10 5 0 9 -4 9 -10z m-312
-65 c17 -17 9 -46 -18 -65 l-30 -21 -77 24 c-43 13 -78 29 -78 35 0 6 18 24
39 40 l39 29 60 -18 c32 -10 62 -20 65 -24z m300 37 c8 -5 11 -27 10 -59 l-3
-50 -40 1 c-22 0 -46 -2 -54 -4 -9 -4 -14 7 -16 35 -3 35 0 43 28 63 33 23 54
27 75 14z m3001 -66 c64 -19 135 -39 159 -46 40 -10 42 -12 42 -49 0 -25 -5
-41 -15 -45 -8 -3 -15 -17 -15 -32 0 -28 2 -27 -65 -11 -11 3 -49 14 -85 26
-36 11 -87 27 -115 34 -27 8 -49 19 -48 24 1 5 3 34 4 64 2 55 5 69 16 69 3 0
58 -15 122 -34z m-3210 4 c29 -7 47 -8 60 0 29 15 31 13 31 -20 0 -16 -2 -30
-4 -30 -2 0 -32 9 -66 20 -34 11 -69 20 -76 20 -8 0 -14 7 -14 16 0 10 6 14
14 11 8 -3 33 -11 55 -17z m-176 -76 c1 -8 -104 -85 -110 -80 -2 2 -6 108 -4
117 2 10 112 -26 114 -37z m3637 -2 c0 -10 -21 -32 -31 -32 -4 0 -5 9 -2 20 5
19 33 29 33 12z m1735 -96 c-4 -28 -9 -58 -10 -67 -6 -32 -14 -84 -20 -134 -4
-27 -8 -57 -11 -66 -3 -9 -7 -34 -9 -55 -3 -20 -7 -49 -10 -64 -3 -15 -7 -42
-10 -61 -18 -125 -32 -209 -36 -212 -2 -1 -19 -12 -36 -25 l-33 -23 -61 20
c-33 11 -76 23 -95 27 l-35 6 20 22 c20 21 35 81 45 176 3 25 7 54 9 65 3 11
10 61 17 111 l12 91 124 127 c69 70 129 124 135 120 7 -4 8 -25 4 -58z m-6949
27 c14 -3 22 -12 21 -26 0 -23 9 -122 19 -196 5 -40 4 -43 -12 -37 -11 5 -40
15 -66 23 -30 10 -48 22 -49 32 0 9 -2 30 -4 46 -17 134 -17 131 10 143 14 6
25 17 25 23 0 7 7 8 18 4 9 -4 27 -10 38 -12z m-161 -20 c19 -9 35 -19 36 -22
0 -3 2 -15 4 -26 2 -11 7 -51 10 -90 l6 -70 -116 -70 c-64 -38 -122 -75 -128
-80 -7 -6 -40 -27 -75 -47 l-63 -38 -62 24 c-34 14 -87 33 -117 44 -48 17 -55
23 -56 48 -2 28 10 37 259 186 144 86 263 157 264 158 1 0 18 -8 38 -17z
m5960 -78 c33 -9 75 -22 94 -27 l33 -10 -24 -22 c-18 -15 -27 -35 -31 -70 -4
-27 -8 -50 -10 -52 -2 -3 -41 6 -86 19 l-81 24 -30 -30 -30 -30 6 49 c3 27 7
63 9 79 2 17 4 33 4 38 1 4 7 7 15 7 8 0 24 11 37 24 13 14 26 23 29 22 3 -2
32 -11 65 -21z m-6465 -315 c30 -12 62 -24 70 -27 8 -3 18 -7 22 -7 3 -1 10
-4 14 -8 4 -5 15 -8 24 -8 13 0 17 -11 19 -51 1 -29 3 -54 5 -58 2 -3 7 -34
11 -68 3 -34 8 -70 10 -81 15 -78 28 -202 22 -202 -16 0 -234 84 -245 95 -7 6
-15 29 -17 51 -7 54 -15 109 -25 179 -5 33 -12 80 -15 105 -4 24 -8 47 -10 51
-3 3 7 12 20 19 14 7 25 17 25 22 0 12 9 10 70 -12z m-121 -108 c31 -194 43
-291 37 -300 -3 -5 -51 -37 -108 -72 -57 -35 -111 -70 -120 -78 -20 -17 -38
-14 -128 21 -36 14 -135 52 -220 84 -192 72 -189 70 -151 91 16 10 144 87 285
172 141 85 265 160 277 166 11 7 25 16 31 22 7 7 22 4 48 -9 36 -19 38 -22 49
-97z m6262 75 c-10 -9 -11 -8 -5 6 3 10 9 15 12 12 3 -3 0 -11 -7 -18z m-2363
-132 c-1 -52 -3 -95 -3 -95 -1 0 -16 5 -32 10 l-30 11 2 97 c2 53 3 98 4 100
1 1 14 -4 31 -13 l30 -15 -2 -95z m48 -15 c1 -89 -1 -98 -16 -90 -14 7 -16 24
-14 102 1 51 2 94 3 95 0 1 7 0 14 -3 10 -3 13 -32 13 -104z m-73 -91 c19 -9
24 -18 24 -50 0 -41 -11 -48 -47 -29 -15 8 -19 20 -17 50 2 44 5 45 40 29z
m3529 -18 c13 -5 52 -18 87 -27 50 -15 65 -24 73 -43 12 -34 5 -47 -76 -132
l-69 -72 7 41 6 41 -70 21 c-39 12 -69 24 -66 28 2 4 7 30 11 57 6 50 36 95
61 95 7 0 23 -4 36 -9z m-3457 -44 c1 -21 -3 -41 -8 -44 -14 -9 -26 18 -25 55
2 49 32 39 33 -11z m849 -84 c-3 -71 -8 -130 -9 -131 -2 -2 -13 -1 -25 3 -21
7 -21 7 -2 23 15 13 19 33 22 87 3 77 6 139 9 143 8 15 10 -19 5 -125z m2492
45 c-3 -13 -5 -31 -5 -40 -1 -19 -35 -25 -46 -8 -5 8 41 70 52 70 1 0 1 -10
-1 -22z m-7730 -138 l191 -72 0 -32 c-1 -31 5 -77 23 -176 5 -30 12 -71 15
-90 14 -87 18 -100 31 -100 28 0 12 -16 -64 -65 -42 -27 -121 -78 -174 -112
l-97 -63 -33 18 c-43 22 -44 24 -57 101 -5 36 -20 118 -31 181 -12 63 -26 142
-31 175 -5 33 -12 74 -16 90 -3 17 -7 39 -8 50 -2 11 -11 58 -19 105 -9 47
-16 88 -16 92 0 4 21 -1 48 -11 26 -10 133 -51 238 -91z m8050 73 c-2 -16 -8
-50 -12 -78 -4 -27 -9 -54 -9 -60 -1 -5 -4 -28 -8 -50 -4 -22 -9 -60 -13 -85
-3 -25 -10 -67 -15 -95 -5 -27 -12 -70 -15 -95 -16 -130 -29 -174 -53 -186
-13 -7 -27 -17 -30 -23 -5 -7 -22 -6 -56 4 -79 24 -81 25 -67 34 7 4 14 19 17
32 4 27 24 158 31 202 2 15 7 42 10 60 3 17 7 46 9 62 15 126 7 112 144 258
52 54 73 61 67 20z m-5516 -138 c57 -29 17 -115 -46 -99 -29 8 -31 11 -37 77
l-4 48 31 -7 c17 -3 42 -12 56 -19z m66 -43 c-18 -18 -31 -10 -23 12 4 10 13
13 22 9 15 -5 15 -7 1 -21z m-1623 -92 l100 -37 -74 -50 c-74 -49 -74 -49
-111 -35 -43 17 -45 20 -54 113 l-7 71 23 -12 c12 -6 67 -29 123 -50z m562 21
c4 -34 -1 -37 -40 -19 -32 14 -31 19 2 40 33 20 33 19 38 -21z m945 -11 c0 -4
-6 -10 -14 -13 -12 -5 -14 2 -7 31 2 7 21 -10 21 -18z m-1591 -150 c4 0 8 -16
9 -35 1 -20 4 -40 7 -45 4 -6 0 -10 -7 -10 -17 1 -66 29 -51 30 9 0 11 11 7
36 -5 31 -3 36 11 30 9 -3 20 -6 24 -6z m35 -239 c10 -69 19 -142 22 -161 2
-19 7 -49 9 -67 7 -39 -4 -47 -41 -29 -16 7 -89 37 -161 66 -94 37 -133 57
-134 69 0 9 -2 25 -4 36 -2 11 -5 38 -7 60 l-3 40 107 72 108 72 44 -16 44
-16 16 -126z m889 74 c42 -15 77 -31 77 -36 0 -14 -142 -111 -151 -102 -9 9
-16 49 -23 126 -3 34 -1 47 7 44 7 -2 47 -16 90 -32z m-1390 -31 c64 -25 119
-49 121 -52 2 -4 7 -36 11 -72 4 -36 9 -67 11 -69 2 -2 -62 -48 -142 -103
l-146 -99 -62 25 c-274 112 -270 110 -277 147 -5 22 -3 36 4 41 7 3 86 56 177
116 91 61 170 111 176 111 6 1 63 -20 127 -45z m168 -76 c0 -13 2 -43 5 -68 5
-35 3 -42 -6 -34 -7 7 -14 29 -16 50 -3 22 -6 47 -8 57 -3 10 2 17 10 17 8 0
14 -10 15 -22z m7249 -3 c19 -7 35 -16 35 -21 1 -5 4 -19 9 -31 7 -21 -1 -34
-59 -97 -6 -6 -46 -51 -89 -101 -44 -49 -83 -94 -88 -100 -5 -5 -6 11 -3 40
12 98 12 100 -13 103 -22 3 -23 7 -18 49 4 34 15 55 43 86 22 23 50 55 63 70
26 30 40 30 120 2z m76 -137 c-3 -29 -8 -63 -10 -74 -5 -23 -8 -45 -32 -199
-8 -55 -17 -111 -20 -125 -2 -14 -9 -59 -15 -101 -11 -70 -15 -77 -43 -92 -30
-16 -35 -16 -128 16 -93 31 -97 34 -84 52 7 11 17 45 20 76 4 31 9 67 11 80 3
13 7 41 11 63 3 23 9 46 12 52 7 11 79 96 117 138 11 12 49 54 84 94 35 40 68
72 74 72 5 0 7 -21 3 -52z m-322 -32 c-3 -9 -13 -16 -22 -16 -13 0 -12 3 3 20
20 23 29 21 19 -4z m-7498 -91 c87 -36 162 -69 166 -73 4 -4 17 -66 28 -137
39 -243 40 -247 46 -256 2 -4 -21 -26 -53 -48 -32 -22 -106 -74 -165 -115
l-106 -74 -7 26 c-8 31 -8 29 -35 187 -11 66 -29 167 -40 225 -11 58 -21 116
-24 130 -2 14 -9 54 -16 89 l-11 64 28 23 c15 13 29 23 29 24 1 0 73 -29 160
-65z m934 15 c0 -5 -9 -12 -20 -15 -11 -3 -20 -11 -20 -16 0 -6 -4 -7 -10 -4
-14 9 -12 43 3 48 16 5 47 -3 47 -13z m81 -29 c24 -10 52 -21 63 -25 15 -5 0
-19 -73 -71 -51 -36 -96 -65 -100 -65 -5 0 -11 28 -15 63 -6 60 -6 63 24 90
36 32 44 33 101 8z m449 3 c0 -8 -5 -12 -10 -9 -6 4 -8 11 -5 16 9 14 15 11
15 -7z m6105 -457 c89 -30 100 -36 107 -62 4 -15 5 -32 2 -37 -8 -12 -24 -10
-21 4 1 6 -45 28 -107 49 -60 21 -111 41 -114 44 -6 5 17 35 27 35 4 0 51 -15
106 -33z m-7085 -103 c19 -9 48 -21 63 -28 l28 -13 -43 -29 c-24 -16 -47 -33
-53 -37 -5 -4 -62 -46 -126 -93 l-117 -84 -78 33 c-44 19 -100 44 -126 56 -27
12 -59 26 -73 31 -14 5 -25 13 -25 17 0 5 44 38 98 75 53 37 128 89 166 116
l69 48 91 -38 c50 -22 107 -46 126 -54z m295 21 c3 -28 8 -62 11 -77 l5 -27
-75 31 c-73 31 -75 32 -53 47 12 9 29 21 37 28 42 34 65 51 67 49 1 -1 5 -24
8 -51z m6930 -47 c-20 -122 -25 -147 -30 -183 -30 -220 -61 -374 -75 -379 -8
-3 -21 -9 -29 -12 -9 -5 -11 -1 -7 14 4 11 9 37 11 58 3 22 10 66 16 99 6 33
13 76 15 95 4 46 11 95 18 128 5 24 14 83 20 134 3 20 45 78 58 78 4 0 6 -15
3 -32z m-7672 -193 c43 -19 80 -35 82 -35 5 0 118 -51 123 -55 2 -1 5 -13 7
-26 15 -102 48 -302 55 -337 l8 -42 -87 -67 c-47 -36 -91 -70 -97 -75 -7 -5
-27 -4 -51 3 l-39 13 -27 150 c-15 83 -29 161 -31 172 -2 12 -7 39 -10 60 -4
22 -13 75 -21 119 -13 73 -24 136 -26 153 -3 18 2 21 19 12 9 -5 52 -25 95
-45z m5522 -117 c7 -7 2 -8 -15 -3 -14 4 -29 12 -35 17 -7 7 -2 8 15 3 14 -4
30 -12 35 -17z m-40 -12 c49 -21 44 -38 -5 -19 -22 9 -40 20 -40 25 0 11 5 10
45 -6z m2040 -303 c-1 -10 2 -23 7 -30 6 -8 -35 -66 -131 -186 -77 -97 -145
-178 -151 -182 -8 -5 -11 5 -9 31 3 34 29 81 74 130 5 6 53 66 105 132 52 66
98 121 102 121 3 1 5 -7 3 -16z m40 -85 c-3 -18 -7 -46 -10 -63 -20 -117 -66
-405 -69 -429 -2 -19 -11 -34 -25 -40 -11 -5 -21 -13 -21 -19 0 -6 -5 -6 -12
0 -7 5 -59 27 -115 47 -56 21 -101 43 -100 50 1 6 15 19 30 29 35 22 43 43 30
78 -7 19 -8 31 -1 35 5 3 70 82 144 175 75 93 140 169 145 169 6 0 7 -14 4
-32z m-6884 -195 c8 -39 8 -38 -71 -98 -97 -75 -100 -78 -100 -97 0 -10 -2
-18 -4 -18 -2 0 -50 22 -107 49 -118 55 -169 78 -253 115 -46 21 -57 30 -53
45 2 10 0 25 -4 34 -7 12 14 33 96 95 l105 80 192 -87 c182 -82 193 -89 199
-118z m104 10 l7 -62 -26 12 c-34 16 -46 80 -19 107 24 24 30 16 38 -57z
m6032 7 c-17 -28 -27 -25 -14 4 7 13 15 22 19 20 4 -3 2 -14 -5 -24z m-6097
-15 c0 -14 -4 -25 -9 -25 -5 0 -11 11 -13 25 -4 17 -1 25 8 25 8 0 14 -11 14
-25z m6054 -39 c-3 -9 -10 -16 -15 -16 -6 0 -5 9 1 21 13 24 24 20 14 -5z
m-6472 -103 c115 -53 211 -99 213 -103 3 -5 7 -23 9 -41 3 -19 8 -50 11 -70 5
-34 3 -39 -37 -70 -24 -18 -45 -36 -48 -39 -3 -3 -34 -28 -70 -55 -36 -28 -69
-55 -75 -61 -5 -6 -30 -26 -55 -45 -25 -18 -46 -37 -48 -40 -5 -12 -62 15 -67
31 -5 16 -39 200 -56 305 -5 33 -18 104 -27 157 -18 94 -18 98 0 104 10 3 18
10 18 15 0 18 26 8 232 -88z m6918 48 c0 -12 -13 -26 -32 -35 -40 -20 -38 -21
-36 10 2 21 7 25 26 21 14 -3 26 1 29 9 7 20 13 17 13 -5z m-547 -20 c4 -18
-20 -54 -81 -121 -12 -14 -33 -40 -45 -57 -12 -18 -25 -33 -29 -33 -4 0 -4 21
-1 48 4 38 16 60 60 115 56 68 86 83 96 48z m30 -60 c-4 -31 -132 -181 -149
-174 -8 3 -14 10 -14 15 0 16 144 187 155 184 6 -2 9 -13 8 -25z m45 -38 c-5
-31 -5 -59 -1 -63 4 -4 32 -16 61 -26 l53 -18 -6 -55 c-7 -72 -16 -124 -21
-133 -10 -17 -36 6 -31 28 6 31 0 37 -58 61 -33 13 -50 26 -49 36 1 10 5 45 9
79 4 35 7 70 8 78 0 13 34 70 41 70 2 0 -1 -25 -6 -57z m416 -25 c-3 -5 -12
-8 -20 -8 -11 0 -13 7 -8 28 11 53 17 58 25 22 4 -19 5 -38 3 -42z m-468 -15
c-2 -10 -8 -46 -11 -80 l-7 -61 -44 16 c-24 9 -44 19 -44 22 0 3 20 27 45 55
25 27 45 53 45 57 0 4 5 8 11 8 6 0 8 -8 5 -17z m504 2 c0 -8 -7 -15 -15 -15
-16 0 -20 12 -8 23 11 12 23 8 23 -8z m-705 -57 c-7 -48 -38 -106 -58 -107
-17 -2 6 94 32 126 14 18 28 33 29 33 2 0 1 -24 -3 -52z m645 46 c0 -7 -211
-267 -224 -276 -5 -3 -22 0 -36 7 -29 15 -29 3 -6 150 2 17 5 35 5 42 1 7 25
2 67 -15 59 -23 67 -24 78 -11 40 55 91 109 103 109 7 0 13 -3 13 -6z m52 -32
c-1 -7 -5 -32 -7 -55 -3 -23 -7 -53 -10 -67 -2 -14 -7 -45 -10 -70 -7 -56 -26
-189 -30 -211 -2 -9 -6 -40 -10 -70 -4 -30 -10 -58 -15 -63 -12 -12 -29 2 -26
22 2 9 7 42 11 72 4 30 9 70 11 88 4 21 1 34 -8 36 -7 3 -48 17 -90 32 l-77
28 52 65 c28 37 54 68 57 71 3 3 30 36 59 73 41 52 59 67 75 65 11 -2 20 -9
18 -16z m133 -40 c140 -52 141 -58 41 -188 -42 -54 -82 -106 -89 -114 -7 -8
-41 -53 -76 -100 l-64 -85 7 64 c4 36 8 67 10 70 2 3 6 30 10 59 7 58 14 112
21 157 3 17 7 48 10 70 11 82 16 105 23 105 4 0 52 -17 107 -38z m-6709 -120
c43 -21 94 -45 112 -53 20 -9 32 -21 33 -34 0 -11 2 -29 5 -40 2 -11 6 -40 10
-66 l6 -45 -103 -84 c-119 -97 -118 -96 -111 -122 6 -25 19 -30 -186 67 -166
78 -170 81 -174 114 -4 32 0 36 161 167 91 73 166 133 167 134 0 0 36 -17 80
-38z m6839 -52 c-12 -66 -55 -337 -71 -445 -3 -22 -7 -41 -9 -43 -4 -4 -238
87 -247 96 -13 14 31 82 162 253 134 174 171 221 176 216 1 -1 -4 -36 -11 -77z
m-6598 18 c0 -14 9 -76 22 -156 8 -50 7 -52 -13 -46 -31 9 -34 14 -40 64 -4
25 -9 62 -12 83 -5 30 -2 41 13 52 23 18 30 18 30 3z m-53 -109 c9 -85 2 -100
-13 -29 -13 61 -14 100 -2 100 4 0 12 -32 15 -71z m5624 -196 c13 -6 13 -8 -4
-148 -5 -38 -16 -61 -50 -103 l-44 -54 6 49 c3 26 7 54 10 61 2 6 -3 12 -12
12 -12 0 -14 11 -8 68 3 37 7 76 9 87 2 11 4 30 4 43 1 22 2 22 39 6 20 -9 43
-18 50 -21z m-6036 -62 l185 -89 11 -82 c10 -69 10 -85 -2 -94 -45 -36 -225
-188 -265 -223 -25 -23 -49 -39 -52 -35 -5 6 -68 346 -85 457 -3 22 -10 60
-15 84 -8 37 -7 45 8 57 10 7 21 14 24 14 4 0 90 -40 191 -89z m6108 33 l40
-16 -33 -40 c-75 -93 -68 -90 -60 -28 3 30 7 65 7 78 0 26 -4 26 46 6z m99
-39 c16 -8 31 -11 35 -8 10 11 6 -11 -7 -33 -20 -36 -191 -244 -200 -244 -7 0
-4 61 8 138 2 12 21 43 42 69 86 106 78 101 122 78z m501 1 c0 -17 -14 -29
-23 -20 -8 8 3 34 14 34 5 0 9 -6 9 -14z m-113 -154 c-51 -65 -101 -131 -112
-146 -11 -15 -28 -37 -39 -49 -10 -12 -32 -41 -49 -64 -17 -24 -32 -42 -33
-40 -2 1 1 32 6 67 6 36 13 90 16 120 3 30 7 64 9 75 2 11 4 28 4 37 1 15 5
15 49 -3 26 -11 57 -25 69 -31 25 -12 28 -9 105 95 23 31 48 57 55 57 7 0 -29
-53 -80 -118z m113 61 c-5 -21 -11 -60 -15 -88 -3 -27 -12 -93 -20 -145 -8
-52 -17 -117 -20 -145 -9 -82 -14 -94 -41 -108 -23 -12 -36 -9 -140 32 -63 25
-114 49 -114 52 0 4 19 31 43 61 23 31 53 70 67 88 143 189 233 300 239 295 5
-3 5 -22 1 -42z m144 -11 c65 -26 119 -50 120 -53 1 -5 -265 -365 -302 -409
-11 -12 -12 -6 -7 40 7 58 7 59 25 185 6 44 14 96 16 115 3 19 9 62 15 95 5
33 9 63 9 68 0 9 -10 13 124 -41z m-544 2 l71 -27 -6 -81 c-4 -44 -8 -83 -10
-87 -2 -3 -7 -34 -11 -70 -3 -35 -7 -72 -8 -81 -1 -10 -5 -20 -8 -23 -3 -3
-41 10 -84 28 -75 32 -79 36 -79 66 0 28 -5 34 -42 51 -26 12 -45 15 -49 9 -4
-6 -11 -6 -19 1 -11 9 3 33 77 126 51 63 93 114 94 114 2 0 35 -12 74 -26z
m-291 -120 c-5 -35 -14 -61 -26 -70 -25 -18 -28 -18 -40 9 -9 20 -6 29 23 63
19 21 34 42 34 46 0 5 4 8 8 8 5 0 5 -25 1 -56z m-5799 -63 c0 -5 25 -19 55
-32 30 -12 55 -26 55 -29 0 -4 -21 -24 -47 -46 -25 -21 -51 -43 -57 -49 -6 -5
-51 -43 -99 -84 -52 -43 -86 -79 -83 -87 3 -7 -31 6 -75 28 l-80 42 28 26 c15
14 55 48 88 75 33 28 62 52 65 55 3 3 28 24 55 45 28 22 54 46 58 53 9 14 37
16 37 3z m5750 -83 c0 -11 -52 -79 -180 -238 -16 -19 -41 -51 -57 -71 -24 -31
-31 -34 -51 -26 -18 8 -25 6 -41 -14 -10 -13 -28 -35 -39 -49 l-21 -25 4 30
c2 17 4 39 4 50 1 11 11 31 24 45 12 14 38 45 57 70 19 25 37 47 40 50 3 3 22
26 43 52 22 28 43 45 51 42 8 -3 25 10 41 30 17 23 36 36 50 36 12 0 28 7 35
15 15 18 40 20 40 3z m26 -55 c-3 -21 -8 -67 -11 -103 -3 -36 -8 -76 -10 -90
-2 -14 -7 -54 -10 -90 -3 -36 -7 -72 -10 -80 -2 -8 -6 -46 -10 -85 -9 -105
-10 -106 -48 -90 -20 9 -32 20 -31 32 1 10 4 46 8 80 l6 63 -42 19 c-24 10
-58 24 -76 31 -18 7 -32 18 -30 24 4 17 252 326 261 326 4 0 6 -17 3 -37z m37
4 c-4 -20 2 -26 43 -42 l47 -18 19 23 c17 21 20 22 55 7 103 -41 136 -59 127
-65 -6 -4 -47 -54 -91 -112 -120 -158 -264 -344 -274 -355 -9 -9 -7 41 5 118
6 37 13 98 21 182 3 33 10 94 15 135 6 41 11 91 12 110 2 41 6 52 17 45 5 -2
6 -15 4 -28z m437 -142 c112 -45 116 -48 123 -82 4 -22 -20 -59 -142 -222
-190 -254 -172 -234 -166 -186 3 22 7 64 11 93 3 29 7 61 9 71 2 10 6 42 10
72 3 30 8 65 10 79 2 14 7 48 10 75 3 28 8 59 10 70 2 11 4 33 4 49 1 18 5 26
14 23 6 -3 55 -22 107 -42z m-133 28 c-3 -5 -7 -30 -10 -58 -5 -46 -8 -69 -22
-165 -2 -19 -9 -73 -15 -120 -6 -47 -13 -94 -15 -105 -2 -11 -4 -34 -4 -52 -1
-19 -10 -40 -22 -51 -20 -19 -21 -19 -137 31 -64 27 -121 54 -126 58 -6 5 9
32 35 66 25 32 83 108 129 168 123 162 181 235 186 235 3 0 3 -3 1 -7z m-6366
-69 c38 -20 71 -40 74 -45 6 -8 28 -129 40 -211 3 -24 8 -50 11 -59 3 -10 7
-31 9 -48 3 -17 7 -44 9 -61 4 -25 -1 -35 -36 -64 -42 -34 -49 -35 -95 -11 -3
2 -21 94 -29 145 -3 19 -7 41 -9 48 -3 7 -7 34 -11 60 -3 26 -8 50 -10 53 -2
4 -6 31 -10 60 -3 30 -8 57 -10 60 -2 4 -6 24 -9 45 -3 22 -8 45 -10 52 -7 19
11 14 86 -24z m5309 -53 c0 -15 -23 -28 -41 -24 -14 4 -16 9 -9 23 9 17 50 18
50 1z m-36 -52 c-6 -11 -24 -2 -24 11 0 5 7 7 15 4 8 -4 12 -10 9 -15z m-19
-19 c3 -5 1 -10 -4 -10 -6 0 -11 5 -11 10 0 6 2 10 4 10 3 0 8 -4 11 -10z
m255 -10 c11 0 20 -39 11 -45 -12 -7 -44 20 -47 39 -2 12 2 16 13 12 8 -3 18
-6 23 -6z m86 -32 c-3 -22 -7 -42 -8 -43 -2 -2 -13 1 -26 6 l-23 9 27 35 c14
19 28 35 31 35 3 0 2 -19 -1 -42z m-349 -44 l-2 -45 68 -29 c74 -32 88 -31
107 6 7 13 19 24 27 24 20 0 16 -12 -18 -50 -17 -19 -37 -44 -45 -54 -11 -17
-17 -18 -36 -8 -13 6 -59 27 -103 46 -87 38 -102 60 -53 84 14 7 32 26 40 42
7 17 14 30 15 30 2 0 2 -20 0 -46z m247 20 c9 -3 14 -10 11 -15 -7 -10 -35 0
-35 12 0 11 3 11 24 3z m80 -45 c-2 -5 -16 -3 -29 3 -13 6 -22 15 -19 19 2 5
16 3 29 -3 13 -6 22 -15 19 -19z m-84 13 c0 -13 -12 -22 -22 -16 -10 6 -1 24
13 24 5 0 9 -4 9 -8z m49 -23 c28 -10 43 -29 22 -29 -19 0 -71 27 -64 33 8 9
4 9 42 -4z m-9 -39 c22 -11 40 -23 40 -26 0 -6 -98 -133 -110 -144 -4 -3 -14
-16 -24 -30 l-18 -25 5 52 c5 44 2 54 -15 65 -20 13 -19 15 26 71 26 31 49 57
52 57 3 0 23 -9 44 -20z m-3995 -29 c36 -17 65 -33 65 -36 0 -9 -144 -145
-148 -140 -2 2 -5 21 -7 42 -2 21 -4 41 -4 44 -1 3 -17 13 -36 22 l-35 17 41
40 c23 22 45 40 50 40 5 0 39 -13 74 -29z m-416 -107 c-27 -28 -31 -38 -26
-68 3 -19 3 -36 1 -39 -5 -4 -120 56 -133 68 -2 2 11 17 29 32 18 15 45 39 59
54 l26 26 38 -20 38 -20 -32 -33z m750 -54 c5 0 13 -6 19 -13 9 -10 -4 -29
-58 -80 -39 -37 -74 -67 -78 -67 -13 0 -272 130 -272 137 0 3 32 36 72 73 l72
67 118 -59 c65 -32 122 -58 127 -58z m206 59 c12 -107 12 -119 1 -119 -50 0
-76 111 -35 149 13 11 24 19 26 17 2 -2 6 -23 8 -47z m3489 -84 c-3 -38 -7
-86 -9 -105 -2 -19 -7 -66 -10 -105 -4 -38 -8 -92 -11 -119 -2 -28 -7 -52 -9
-55 -10 -9 -75 29 -70 41 2 7 6 34 8 59 4 44 3 47 -29 63 -34 16 -34 16 -28
68 3 29 7 67 8 85 1 20 17 50 42 80 21 26 53 66 69 88 l29 39 8 -34 c4 -19 5
-66 2 -105z m365 124 c17 -6 31 -15 31 -20 0 -12 -5 -11 -45 5 -56 24 -45 35
14 15z m-17 -31 c22 -7 37 -16 34 -23 -4 -11 -232 -313 -246 -325 -3 -3 -31
-40 -63 -82 -76 -101 -92 -98 -83 16 8 102 26 293 31 326 2 14 4 35 4 47 1 21
4 20 89 -18 48 -21 92 -39 97 -38 6 0 28 24 50 54 22 30 42 55 44 55 2 0 21
-5 43 -12z m116 -12 c15 -8 71 -34 125 -57 92 -39 100 -46 100 -84 0 -9 -218
-310 -295 -407 -33 -42 -51 -42 -44 0 3 15 8 52 11 82 3 30 8 71 10 90 3 19 7
61 10 93 2 31 7 67 9 80 3 12 8 53 11 90 7 79 11 103 20 117 8 13 12 13 43 -4z
m-4023 -46 c3 -35 0 -36 -44 -14 -33 16 -33 34 -1 34 10 0 22 5 25 11 10 15
18 4 20 -31z m3952 3 c-3 -5 -8 -39 -12 -78 -3 -38 -9 -84 -11 -102 -3 -17 -6
-49 -8 -70 -2 -21 -9 -93 -16 -159 l-13 -121 -33 -18 -32 -17 -108 48 c-60 26
-113 51 -118 55 -5 4 43 74 106 156 63 81 142 185 177 231 34 45 65 82 67 82
3 0 3 -3 1 -7z m-5629 -104 c97 -50 208 -107 245 -127 73 -37 73 -38 81 -92 2
-19 8 -56 11 -83 l7 -47 -63 33 c-35 19 -135 71 -223 117 -320 167 -298 152
-301 196 -2 33 2 43 29 66 17 15 32 27 34 28 1 0 82 -41 180 -91z m662 68 c25
-13 56 -29 68 -36 l24 -13 -24 -21 c-78 -72 -184 -171 -260 -244 -48 -45 -92
-84 -99 -85 -11 -3 -13 1 -24 82 -3 25 -8 52 -11 61 -3 9 2 23 9 30 8 8 65 61
127 119 62 58 118 110 124 117 15 16 14 16 66 -10z m614 -85 l139 -68 -52 -51
c-36 -35 -51 -58 -51 -77 l0 -26 -132 66 c-73 36 -135 68 -137 70 -3 3 17 26
43 53 38 39 46 53 42 74 -3 15 -2 27 2 27 4 -1 70 -31 146 -68z m-497 -8 c1
-20 3 -37 5 -38 2 -1 46 -23 100 -50 l96 -48 7 -72 c4 -39 9 -78 10 -86 2 -8
6 -42 9 -75 4 -33 11 -96 16 -140 6 -44 12 -102 16 -129 l5 -48 -178 92 c-98
51 -248 129 -333 173 -85 44 -156 81 -158 82 -3 3 94 97 193 188 33 31 92 85
130 121 39 36 72 66 75 66 3 0 6 -16 7 -36z m398 -164 c73 -36 136 -71 139
-78 3 -7 8 -47 12 -90 l6 -77 -131 -130 c-72 -71 -135 -131 -139 -133 -4 -1
-8 6 -8 15 0 10 -3 43 -7 73 -13 106 -16 126 -22 185 -13 121 -25 222 -31 259
-5 30 9 48 34 43 7 -1 73 -31 147 -67z m4020 -160 c8 -13 -13 -50 -29 -50 -8
0 -28 6 -45 13 l-31 13 23 31 c21 30 23 30 49 17 15 -8 29 -18 33 -24z m27
-32 c-9 -9 -12 -7 -12 12 0 19 3 21 12 12 9 -9 9 -15 0 -24z m154 -42 c98 -44
120 -58 122 -77 2 -13 8 -29 13 -35 7 -8 -47 -89 -168 -252 -98 -132 -182
-241 -186 -241 -4 -1 -5 20 -2 47 3 26 8 72 10 102 3 30 7 82 10 115 4 33 8
78 10 100 2 22 7 74 10 115 5 59 11 78 27 91 15 11 18 22 13 38 -5 18 7 51 20
51 1 0 56 -24 121 -54z m-253 19 c20 -8 37 -23 39 -32 3 -16 -47 -88 -195
-277 l-39 -50 7 70 c3 38 9 76 11 86 3 9 -4 23 -17 32 -21 14 -21 16 -5 41 34
52 60 75 76 70 12 -4 26 7 45 35 32 46 30 45 78 25z m-3781 -86 c3 -28 12 -36
118 -91 63 -33 147 -77 187 -97 50 -26 75 -35 83 -27 7 7 10 3 11 -14 1 -14 3
-36 4 -50 1 -14 5 -63 9 -110 4 -47 9 -107 11 -135 3 -31 0 -52 -7 -56 -9 -6
-410 190 -453 221 -5 4 -61 33 -122 64 -62 32 -113 60 -113 62 0 7 254 262
262 263 4 1 8 -13 10 -30z m3843 9 c-2 -7 -6 -47 -10 -88 -3 -41 -8 -97 -11
-125 -4 -49 -9 -95 -19 -212 -14 -154 -18 -156 -140 -97 -76 37 -90 47 -88 66
10 152 4 136 103 264 50 66 97 127 105 136 7 9 21 28 30 42 18 27 37 35 30 14z
m-3391 -228 c9 -84 19 -249 20 -305 1 -37 -3 -50 -13 -50 -9 0 -16 11 -17 25
-1 24 -11 151 -20 260 -2 30 -6 64 -8 75 -3 17 22 60 30 52 1 -1 5 -27 8 -57z
m3213 -314 c116 -55 116 -56 -4 -219 -54 -73 -103 -139 -110 -147 -44 -54
-183 -246 -183 -252 0 -4 -5 -8 -11 -8 -7 0 -9 23 -5 70 7 83 16 198 21 272 2
29 4 56 4 60 1 4 7 13 14 20 22 24 169 221 174 235 3 8 8 13 12 11 4 -2 43
-20 88 -42z m-2792 -251 c196 -103 293 -153 307 -158 9 -3 7 -9 -7 -20 -19
-15 -31 -10 -195 75 -96 50 -189 99 -205 108 -17 10 -89 47 -161 83 -113 58
-130 69 -132 92 -2 26 0 25 131 -43 72 -38 191 -100 262 -137z m521 27 c3 -16
-21 -52 -67 -103 -13 -14 -38 -42 -56 -63 -21 -25 -38 -36 -48 -33 -25 10 -17
29 36 87 29 30 67 74 87 98 35 43 44 45 48 14z m938 -15 l26 -14 -36 -41 c-19
-23 -33 -45 -30 -50 2 -4 1 -14 -3 -21 -7 -10 -17 -8 -51 9 -24 12 -39 25 -34
28 5 4 26 28 47 55 42 52 44 53 81 34z m1022 -64 c-5 -44 -16 -202 -20 -281
-4 -66 -19 -66 -146 -3 l-115 57 -3 42 c-3 36 3 49 49 111 l52 70 49 -25 c27
-14 53 -22 58 -19 5 3 24 26 40 51 17 24 33 44 36 44 2 0 2 -21 0 -47z m-210
6 c4 -8 -61 -109 -70 -109 -2 0 -1 50 3 127 1 14 57 -2 67 -18z m-1748 -4 c-3
-14 0 -31 6 -39 6 -7 99 -59 206 -114 380 -195 354 -183 364 -157 15 40 22 4
22 -105 -1 -119 -1 -119 -27 -130 -22 -9 -33 -7 -70 13 -74 40 -245 130 -434
227 -203 105 -204 105 -203 128 0 9 -1 22 -3 28 -4 10 127 174 139 174 2 0 2
-11 0 -25z m892 -165 l0 -65 -95 -119 c-53 -65 -103 -125 -111 -133 -8 -9 -22
-26 -30 -39 -32 -47 -40 -20 -40 124 l1 137 54 65 c29 36 69 83 88 106 l34 41
50 -26 49 -26 0 -65z m891 -135 c144 -72 145 -76 64 -180 -34 -44 -134 -178
-223 -298 -88 -119 -163 -214 -165 -210 -2 5 -3 17 -1 27 2 18 16 308 18 399
1 31 17 59 96 164 52 70 94 133 92 140 -2 7 0 13 3 13 3 0 55 -25 116 -55z
m-654 -230 c130 -66 239 -121 243 -123 4 -1 22 20 41 47 19 28 37 51 40 51 3
0 5 -24 3 -52 -7 -152 -16 -356 -17 -380 0 -16 -3 -28 -5 -28 -2 0 -41 20 -86
44 -44 24 -171 90 -281 147 -386 199 -400 207 -400 226 0 10 -4 24 -8 30 -5 8
13 39 50 85 32 40 60 75 63 78 3 3 30 36 60 73 l55 69 3 -74 3 -73 236 -120z"/>
</g>
</svg>
